<?xml version="1.0" encoding="UTF-8" standalone="no"?>
<svg
   xmlns:osb="http://www.openswatchbook.org/uri/2009/osb"
   xmlns:dc="http://purl.org/dc/elements/1.1/"
   xmlns:cc="http://creativecommons.org/ns#"
   xmlns:rdf="http://www.w3.org/1999/02/22-rdf-syntax-ns#"
   xmlns:svg="http://www.w3.org/2000/svg"
   xmlns="http://www.w3.org/2000/svg"
   xmlns:sodipodi="http://sodipodi.sourceforge.net/DTD/sodipodi-0.dtd"
   xmlns:inkscape="http://www.inkscape.org/namespaces/inkscape"
   enable-background="new 0 0 512 512"
   height="128"
   id="Layer_1"
   version="1.1"
   viewBox="0 0 128 128"
   width="128"
   xml:space="preserve"
   sodipodi:docname="hit.svg"
   inkscape:version="0.92.1 r15371"><metadata
     id="metadata15"><rdf:RDF><cc:Work
         rdf:about=""><dc:format>image/svg+xml</dc:format><dc:type
           rdf:resource="http://purl.org/dc/dcmitype/StillImage" /><dc:title></dc:title></cc:Work></rdf:RDF></metadata><defs
     id="defs13"><linearGradient
       id="linearGradient4515"
       osb:paint="solid"><stop
         style="stop-color:#edbd99;stop-opacity:1;"
         offset="0"
         id="stop4513" /></linearGradient><linearGradient
       inkscape:collect="always"
       id="linearGradient4497"
       osb:paint="gradient"><stop
         style="stop-color:#ff2a00;stop-opacity:1;"
         offset="0"
         id="stop4493" /><stop
         style="stop-color:#ffffff;stop-opacity:0;"
         offset="1"
         id="stop4495" /></linearGradient><filter
       style="color-interpolation-filters:sRGB"
       inkscape:label="Drop Shadow"
       id="filter4863"><feFlood
         flood-opacity="0.498039"
         flood-color="rgb(0,0,0)"
         result="flood"
         id="feFlood4853" /><feComposite
         in="flood"
         in2="SourceGraphic"
         operator="in"
         result="composite1"
         id="feComposite4855" /><feGaussianBlur
         in="composite1"
         stdDeviation="3"
         result="blur"
         id="feGaussianBlur4857" /><feOffset
         dx="2"
         dy="2"
         result="offset"
         id="feOffset4859" /><feComposite
         in="SourceGraphic"
         in2="offset"
         operator="over"
         result="composite2"
         id="feComposite4861" /></filter></defs><sodipodi:namedview
     pagecolor="#ffffff"
     bordercolor="#666666"
     borderopacity="1"
     objecttolerance="10"
     gridtolerance="10"
     guidetolerance="10"
     inkscape:pageopacity="0"
     inkscape:pageshadow="2"
     inkscape:window-width="1366"
     inkscape:window-height="708"
     id="namedview11"
     showgrid="false"
     inkscape:zoom="0.921875"
     inkscape:cx="421.84664"
     inkscape:cy="250.21406"
     inkscape:window-x="0"
     inkscape:window-y="0"
     inkscape:window-maximized="1"
     inkscape:current-layer="Layer_1" /><path
     d="M 128,112.10434 C 128,120.88339 120.51123,128 111.27368,128 H 16.72659 C 7.48904,128 0,120.88339 0,112.10434 v -89.852 C 0,13.47354 7.48904,6.35668 16.72659,6.35668 h 94.54709 C 120.51123,6.35668 128,13.47354 128,22.25234 Z"
     id="path2"
     style="fill:#786721;stroke-width:0.26353499"
     inkscape:connector-curvature="0" /><path
     d="m 128,105.74741 c 0,8.77905 -7.48877,15.89566 -16.72632,15.89566 H 16.72659 C 7.48904,121.64307 0,114.52646 0,105.74741 v -89.852 C 0,7.11661 7.48904,0 16.72659,0 h 94.54709 C 120.51123,0 128,7.11661 128,15.89541 Z"
     id="path4"
     style="fill:#ffd42a;stroke-width:0.26353499"
     inkscape:connector-curvature="0" /><path
     d="M 128,78.31349 101.23324,52.87601 89.31966,51.23129 63.99973,27.16878 52.49409,49.32426 l -25.72706,3.55175 0.27628,0.25615 -0.006,7.6e-4 0.27627,0.25615 -0.006,7.6e-4 0.27627,0.25614 -0.006,7.7e-4 0.27629,0.25613 -0.006,7.8e-4 0.27629,0.25613 -0.006,7.8e-4 0.27629,0.25613 -0.006,7.7e-4 0.27629,0.25614 -0.006,7.7e-4 0.27629,0.25614 -0.006,7.7e-4 0.27628,0.25614 -0.006,7.7e-4 0.27627,0.25613 -0.006,7.8e-4 0.27628,0.25613 -0.006,7.8e-4 0.27628,0.25613 -0.006,7.7e-4 0.27628,0.25614 -0.006,7.7e-4 0.27627,0.25614 -0.006,7.6e-4 0.27628,0.25615 -0.006,7.6e-4 0.27628,0.25615 -0.006,7.6e-4 0.27628,0.25614 -0.006,7.7e-4 0.27628,0.25613 -0.006,7.8e-4 0.27628,0.25613 -0.006,7.8e-4 0.27628,0.25613 -0.006,7.8e-4 0.27628,0.25613 -0.006,7.7e-4 0.27629,0.25614 -0.006,7.7e-4 0.27629,0.25614 -0.006,7.7e-4 0.27628,0.25613 -0.006,7.8e-4 0.27628,0.25613 -0.006,7.8e-4 0.27627,0.25613 -0.006,7.7e-4 0.27628,0.25614 -0.006,7.7e-4 0.27628,0.25614 -0.006,7.6e-4 0.27628,0.25615 -0.006,7.6e-4 0.27627,0.25615 -0.006,7.6e-4 0.27628,0.25614 -0.006,7.7e-4 0.27628,0.25613 -0.006,7.8e-4 0.27629,0.25613 -0.006,7.8e-4 0.27629,0.25613 -0.006,7.8e-4 0.27629,0.25613 -0.006,7.7e-4 0.27628,0.25614 -0.006,7.7e-4 0.27628,0.25614 -0.006,7.7e-4 0.27628,0.25614 -0.006,7.7e-4 0.27628,0.25613 -0.006,7.8e-4 0.27628,0.25613 -0.006,7.8e-4 0.27628,0.25613 -0.006,7.7e-4 0.27627,0.25614 -0.006,7.6e-4 0.27628,0.25615 -0.006,7.6e-4 0.27628,0.25615 -0.006,7.6e-4 0.27628,0.25588 -0.006,8.2e-4 0.27627,0.25588 -0.006,8.3e-4 0.27628,0.25588 -0.006,8.2e-4 0.27629,0.25588 -0.006,8.2e-4 0.27629,0.25588 -0.006,8.3e-4 0.27629,0.25587 -0.006,8.3e-4 0.27629,0.25588 -0.006,8.2e-4 0.27628,0.25588 -0.006,8.2e-4 0.27627,0.25588 -0.006,8.3e-4 0.27628,0.25587 -0.006,8.3e-4 0.27628,0.25588 -0.006,8.2e-4 0.27628,0.25588 -0.006,8.2e-4 0.27627,0.25589 -0.006,8.2e-4 0.27628,0.25588 -0.006,8.3e-4 0.27628,0.25588 -0.006,8.2e-4 0.27628,0.25588 -0.006,8.2e-4 0.27628,0.25588 -0.006,8.2e-4 0.27628,0.25588 -0.006,8.3e-4 0.27628,0.25588 -0.006,8.2e-4 0.27629,0.25588 -0.006,8.2e-4 0.27629,0.25588 -0.006,8.3e-4 0.27629,0.25587 -0.006,8.3e-4 0.27629,0.25588 -0.006,8.2e-4 0.27628,0.25588 -0.006,8.2e-4 0.16571,0.15389 -4.32641,23.97413 28.58934,27.1693 h 34.70941 l 0.26196,-0.13102 0.26195,0.13102 h 6.46204 c 9.23755,0 16.72632,-7.11661 16.72632,-15.89567 V 78.30857 Z"
     id="path6"
     style="fill:#d4aa00;stroke-width:0.26353499"
     inkscape:connector-curvature="0" /><polygon
     points="212.617,198.511 255.178,112.271 297.74,198.511 392.91,212.336 324.047,279.466 340.301,374.253 255.178,329.498 170.059,374.253 186.314,279.466 117.449,212.336 "
     id="polygon8"
     style="clip-rule:evenodd;opacity:1;fill:#ffffff;fill-opacity:1;fill-rule:evenodd;filter:url(#filter4863)"
     transform="matrix(0.27033305,0,0,0.25690791,-4.98332,-1.67478)" /></svg>