<?xml version="1.0" standalone="no"?>
<!DOCTYPE svg PUBLIC "-//W3C//DTD SVG 20010904//EN"
 "http://www.w3.org/TR/2001/REC-SVG-20010904/DTD/svg10.dtd">
<svg version="1.0" xmlns="http://www.w3.org/2000/svg"
 width="128.000000pt" height="128.000000pt" viewBox="0 0 128.000000 128.000000"
 preserveAspectRatio="xMidYMid meet">
<metadata>
Created by potrace 1.15, written by Peter Selinger 2001-2017
</metadata>
<g transform="translate(0.000000,128.000000) scale(0.100000,-0.100000)"
fill="#000000" stroke="none">
<path d="M84 1196 c-54 -54 -74 -81 -74 -100 0 -14 2 -26 5 -26 3 0 23 16 45
36 l40 36 0 -62 c0 -59 -2 -64 -45 -112 -27 -30 -45 -60 -45 -74 0 -13 2 -24
5 -24 3 0 23 16 45 36 l40 36 0 -64 c0 -54 -4 -68 -21 -84 -12 -10 -35 -37
-50 -58 -24 -32 -29 -49 -29 -98 l0 -58 31 0 30 0 -26 -34 c-16 -21 -25 -44
-23 -58 3 -21 8 -18 64 35 l61 57 64 0 63 0 -49 -50 c-39 -40 -56 -50 -82 -50
-30 0 -33 -3 -33 -31 0 -23 -12 -45 -45 -81 -27 -30 -45 -60 -45 -74 0 -13 2
-24 5 -24 3 0 23 16 45 36 l40 36 0 -62 c0 -59 -2 -64 -45 -112 -27 -30 -45
-60 -45 -74 0 -13 2 -24 5 -24 3 0 23 16 45 36 36 33 40 34 40 15 0 -18 6 -21
41 -21 l42 0 -42 -45 c-22 -24 -41 -47 -41 -50 0 -3 11 -5 24 -5 15 0 45 19
79 50 54 49 56 50 117 50 l63 0 -42 -45 c-22 -24 -41 -47 -41 -50 0 -3 11 -5
24 -5 15 0 45 19 79 50 30 28 60 50 66 50 6 0 11 6 11 13 0 7 36 48 80 92 44
44 80 74 80 67 0 -8 18 -12 52 -12 l52 0 -122 -123 c-67 -68 -122 -127 -122
-130 0 -4 12 -7 26 -7 20 0 57 31 158 130 l132 130 64 0 64 0 -122 -123 c-67
-68 -122 -127 -122 -130 0 -4 12 -7 26 -7 20 0 57 30 158 128 102 100 140 131
172 140 50 15 109 75 119 123 4 19 29 57 56 87 30 33 49 63 49 78 0 13 -2 24
-5 24 -3 0 -26 -19 -50 -41 l-45 -42 0 63 c0 61 1 63 50 117 31 34 50 64 50
79 0 13 -2 24 -5 24 -3 0 -26 -19 -50 -41 l-45 -42 0 63 c0 61 1 63 50 117 31
34 50 64 50 79 0 13 -2 24 -5 24 -3 0 -28 -21 -55 -46 -31 -29 -50 -41 -50
-32 0 9 -9 27 -21 42 l-21 27 76 79 c53 56 76 87 76 105 0 14 -3 25 -6 25 -4
0 -48 -40 -98 -88 l-91 -88 -53 11 -52 10 106 105 c125 124 136 140 98 140
-20 0 -55 -29 -153 -125 -144 -141 -171 -154 -171 -83 0 38 6 48 78 122 69 72
75 81 54 84 -36 5 -77 -31 -352 -310 l-255 -258 -65 0 -64 0 49 50 c49 49 50
50 112 50 l63 0 0 63 0 62 156 155 c85 85 160 163 165 173 8 14 5 17 -17 17
-20 0 -57 -31 -165 -137 l-139 -137 0 65 0 65 56 54 c72 72 83 90 50 90 -14 0
-44 -18 -74 -45 -48 -43 -53 -45 -112 -45 l-62 0 36 40 c20 22 36 42 36 45 0
3 -11 5 -24 5 -14 0 -44 -18 -74 -45 -48 -43 -53 -45 -112 -45 l-62 0 36 40
c20 22 36 42 36 45 0 3 -12 5 -26 5 -19 0 -46 -20 -100 -74z m609 -299 c44
-47 45 -43 -34 -123 l-73 -74 -66 0 -65 0 105 105 c58 58 108 105 113 105 5 0
14 -6 20 -13z m367 -70 l0 -52 -197 -197 c-109 -109 -203 -198 -210 -198 -7 0
-13 -6 -13 -13 0 -7 -36 -48 -80 -92 l-80 -80 0 65 0 65 282 282 c155 155 285
280 290 277 4 -3 8 -28 8 -57z m-255 -47 l29 -31 -174 -174 -175 -175 -3 40
c-3 33 -7 40 -25 40 -18 0 -14 7 28 50 36 36 57 50 77 50 24 0 28 4 28 27 0
21 20 48 87 115 48 49 90 88 93 88 4 0 19 -14 35 -30z m158 -302 l-98 -98 -65
0 -65 0 160 160 160 160 3 -62 3 -62 -98 -98z"/>
<path d="M1096 210 c-97 -96 -182 -183 -187 -193 -8 -14 -5 -17 17 -17 20 0
58 32 171 142 163 161 186 189 181 221 -3 19 -30 -4 -182 -153z"/>
</g>
</svg>
